FILE "Sensible Soccer v1.08 (demo) (1993)(Sony)(EU)(M4).img" BINARY
  TRACK 01 MODE1/2352
    INDEX 01 00:00:00
  TRACK 02 AUDIO
    PREGAP 00:02:00
    INDEX 01 02:31:10
  TRACK 03 AUDIO
    INDEX 01 02:39:08
  TRACK 04 AUDIO
    INDEX 01 02:50:48
  TRACK 05 AUDIO
    INDEX 01 03:02:58
  TRACK 06 AUDIO
    INDEX 01 03:32:73
  TRACK 07 AUDIO
    INDEX 01 03:47:38
  TRACK 08 AUDIO
    INDEX 01 04:02:03
  TRACK 09 AUDIO
    INDEX 01 04:12:16
  TRACK 10 AUDIO
    INDEX 01 04:26:56
  TRACK 11 AUDIO
    INDEX 01 04:44:35
  TRACK 12 AUDIO
    INDEX 01 04:57:13
  TRACK 13 AUDIO
    INDEX 01 05:11:40
  TRACK 14 AUDIO
    INDEX 01 05:25:24
  TRACK 15 AUDIO
    INDEX 01 05:39:15
  TRACK 16 AUDIO
    INDEX 01 05:51:68
  TRACK 17 AUDIO
    INDEX 01 06:06:20
  TRACK 18 AUDIO
    INDEX 01 06:18:54
  TRACK 19 AUDIO
    INDEX 01 06:31:33
  TRACK 20 AUDIO
    INDEX 01 06:44:11
  TRACK 21 AUDIO
    INDEX 01 06:58:38
  TRACK 22 AUDIO
    INDEX 01 07:09:62
  TRACK 23 AUDIO
    INDEX 01 07:21:29
  TRACK 24 AUDIO
    INDEX 01 07:31:47
  TRACK 25 AUDIO
    INDEX 01 07:45:74
  TRACK 26 AUDIO
    INDEX 01 07:58:33
  TRACK 27 AUDIO
    INDEX 01 08:08:70
  TRACK 28 AUDIO
    INDEX 01 08:19:13
  TRACK 29 AUDIO
    INDEX 01 08:33:40
  TRACK 30 AUDIO
    INDEX 01 08:44:64
  TRACK 31 AUDIO
    INDEX 01 09:09:03
  TRACK 32 AUDIO
    INDEX 01 09:21:37
  TRACK 33 AUDIO
    INDEX 01 09:35:64
  TRACK 34 AUDIO
    INDEX 01 09:47:39
  TRACK 35 AUDIO
    INDEX 01 09:58:33
  TRACK 36 AUDIO
    INDEX 01 10:05:48
  TRACK 37 AUDIO
    INDEX 01 10:19:70
  TRACK 38 AUDIO
    INDEX 01 10:31:45
  TRACK 39 AUDIO
    INDEX 01 10:45:13
  TRACK 40 AUDIO
    INDEX 01 10:51:47
  TRACK 41 AUDIO
    INDEX 01 11:05:74
  TRACK 42 AUDIO
    INDEX 01 11:17:18
  TRACK 43 AUDIO
    INDEX 01 11:24:68
  TRACK 44 AUDIO
    INDEX 01 11:31:59
  TRACK 45 AUDIO
    INDEX 01 11:46:11
  TRACK 46 AUDIO
    INDEX 01 11:59:70
  TRACK 47 AUDIO
    INDEX 01 12:16:46
  TRACK 48 AUDIO
    INDEX 01 12:23:31
  TRACK 49 AUDIO
    INDEX 01 12:37:58
  TRACK 50 AUDIO
    INDEX 01 12:50:17
  TRACK 51 AUDIO
    INDEX 01 12:57:26
  TRACK 52 AUDIO
    INDEX 01 13:03:55
  TRACK 53 AUDIO
    INDEX 01 13:18:07
  TRACK 54 AUDIO
    INDEX 01 13:29:31
  TRACK 55 AUDIO
    INDEX 01 13:37:25
  TRACK 56 AUDIO
    INDEX 01 13:48:44
  TRACK 57 AUDIO
    INDEX 01 14:02:71
  TRACK 58 AUDIO
    INDEX 01 14:14:46
  TRACK 59 AUDIO
    INDEX 01 14:44:11
  TRACK 60 AUDIO
    INDEX 01 14:56:64
  TRACK 61 AUDIO
    INDEX 01 15:14:31
  TRACK 62 AUDIO
    INDEX 01 15:25:50
  TRACK 63 AUDIO
    INDEX 01 15:38:03
  TRACK 64 AUDIO
    INDEX 01 15:48:21
  TRACK 65 AUDIO
    INDEX 01 16:05:63
  TRACK 66 AUDIO
    INDEX 01 16:19:47
  TRACK 67 AUDIO
    INDEX 01 16:29:55
  TRACK 68 AUDIO
    INDEX 01 16:42:14
  TRACK 69 AUDIO
    INDEX 01 16:59:56
  TRACK 70 AUDIO
    INDEX 01 17:11:05
  TRACK 71 AUDIO
    INDEX 01 17:20:55
  TRACK 72 AUDIO
    INDEX 01 17:27:70
  TRACK 73 AUDIO
    INDEX 01 17:45:37
  TRACK 74 AUDIO
    INDEX 01 17:57:71
  TRACK 75 AUDIO
    INDEX 01 18:15:73
  TRACK 76 AUDIO
    INDEX 01 18:22:32
  TRACK 77 AUDIO
    INDEX 01 18:39:74
  TRACK 78 AUDIO
    INDEX 01 18:51:49
  TRACK 79 AUDIO
    INDEX 01 18:58:08
  TRACK 80 AUDIO
    INDEX 01 19:04:74
  TRACK 81 AUDIO
    INDEX 01 19:22:41
  TRACK 82 AUDIO
    INDEX 01 19:33:60
  TRACK 83 AUDIO
    INDEX 01 19:45:40
  TRACK 84 AUDIO
    INDEX 01 19:52:25
  TRACK 85 AUDIO
    INDEX 01 20:09:67
  TRACK 86 AUDIO
    INDEX 01 20:23:51
  TRACK 87 AUDIO
    INDEX 01 20:33:73
  TRACK 88 AUDIO
    INDEX 01 20:40:64
  TRACK 89 AUDIO
    INDEX 01 20:58:31
  TRACK 90 AUDIO
    INDEX 01 21:10:65
  TRACK 91 AUDIO
    INDEX 01 21:27:01
  TRACK 92 AUDIO
    INDEX 01 21:38:20
  TRACK 93 AUDIO
    INDEX 01 21:55:62
  TRACK 94 AUDIO
    INDEX 01 22:07:11
  TRACK 95 AUDIO
    INDEX 01 25:11:23
  TRACK 96 AUDIO
    INDEX 01 28:58:14
